<svg width="24" height="24" viewBox="0 0 24 24" fill="none" xmlns="http://www.w3.org/2000/svg">
<path d="M8.75062 6.37576C7.27436 7.24622 6.20153 8.66439 5.76551 10.3218C5.32949 11.9792 5.56555 13.7417 6.42235 15.2259C7.27914 16.7101 8.68735 17.796 10.3406 18.2473C11.9939 18.6986 13.7585 18.4788 15.2506 17.6358C15.4222 17.5444 15.6226 17.5232 15.8095 17.5767C15.9964 17.6302 16.1553 17.7542 16.2525 17.9225C16.3498 18.0909 16.3779 18.2904 16.3309 18.479C16.2839 18.6677 16.1655 18.8307 16.0006 18.9338C14.4881 19.8076 12.7312 20.1623 10.9982 19.9438C9.26516 19.7252 7.6513 18.9454 6.40314 17.7234C5.15497 16.5014 4.34111 14.9045 4.08587 13.1765C3.83063 11.4485 4.14804 9.68442 4.98962 8.15376C5.83351 6.61467 7.16017 5.39585 8.76511 4.68513C10.3701 3.97442 12.1642 3.81127 13.871 4.22083C15.5778 4.63039 17.1026 5.58993 18.2102 6.95156C19.3179 8.31319 19.947 10.0013 20.0006 11.7558V13.2558C20.001 13.8514 19.8079 14.4311 19.4505 14.9076C19.093 15.3841 18.5905 15.7317 18.0185 15.898C17.4466 16.0643 16.836 16.0405 16.2788 15.83C15.7216 15.6195 15.2478 15.2337 14.9286 14.7308C14.2943 15.4139 13.4413 15.8541 12.5169 15.975C11.5925 16.096 10.6549 15.8902 9.86621 15.3932C9.07747 14.8963 8.48714 14.1393 8.19726 13.2533C7.90737 12.3673 7.93615 11.4078 8.27862 10.5408C8.61981 9.67402 9.25279 8.95353 10.0684 8.50358C10.884 8.05362 11.831 7.90241 12.7462 8.07603C13.6613 8.24965 14.4872 8.73722 15.0813 9.45462C15.6755 10.172 16.0006 11.0743 16.0006 12.0058V13.2558C16.0006 13.5873 16.1323 13.9052 16.3667 14.1396C16.6012 14.3741 16.9191 14.5058 17.2506 14.5058C17.5821 14.5058 17.9001 14.3741 18.1345 14.1396C18.3689 13.9052 18.5006 13.5873 18.5006 13.2558V11.8728C18.4776 10.7431 18.1605 9.63895 17.5806 8.66921C17.0007 7.69946 16.1781 6.89763 15.1938 6.3428C14.2095 5.78796 13.0976 5.49928 11.9677 5.50524C10.8378 5.5112 9.729 5.81158 8.75062 6.37676V6.37576ZM14.5006 12.0058C14.5006 11.3427 14.2372 10.7068 13.7684 10.238C13.2995 9.76916 12.6637 9.50576 12.0006 9.50576C11.3376 9.50576 10.7017 9.76916 10.2328 10.238C9.76401 10.7068 9.50062 11.3427 9.50062 12.0058C9.50062 12.6688 9.76401 13.3047 10.2328 13.7735C10.7017 14.2424 11.3376 14.5058 12.0006 14.5058C12.6637 14.5058 13.2995 14.2424 13.7684 13.7735C14.2372 13.3047 14.5006 12.6688 14.5006 12.0058Z" fill="black"/>
</svg>
